<?xml version="1.0" encoding="UTF-8" standalone="no"?>
<!DOCTYPE svg PUBLIC "-//W3C//DTD SVG 1.1//EN" "http://www.w3.org/Graphics/SVG/1.1/DTD/svg11.dtd">
<svg width="100%" height="100%" viewBox="0 0 50 50" version="1.1" xmlns="http://www.w3.org/2000/svg" xmlns:xlink="http://www.w3.org/1999/xlink" xml:space="preserve" xmlns:serif="http://www.serif.com/" style="fill-rule:evenodd;clip-rule:evenodd;stroke-linejoin:round;stroke-miterlimit:2;">
    <g transform="matrix(1,0,0,1,-65,-35)">
        <g transform="matrix(1,0,0,1,65,35)">
            <g transform="matrix(0.177272,0,0,0.259155,-25.281,-22.2445)">
                <g transform="matrix(4.11848,0,0,3.30745,155.865,144.266)">
                    <path d="M57.048,15L5,15L5,8L57.048,8L57.048,15Z" style="fill:white;"/>
                </g>
                <g transform="matrix(4.11848,0,0,3.30745,155.865,190.571)">
                    <path d="M57.048,15L5,15L5,8L57.048,8L57.048,15Z" style="fill:white;"/>
                </g>
                <g transform="matrix(4.11848,0,0,3.30745,155.865,97.9621)">
                    <path d="M57.048,15L5,15L5,8L57.048,8L57.048,15Z" style="fill:white;"/>
                </g>
            </g>
        </g>
    </g>
</svg>
